<?xml version="1.0" encoding="UTF-8" standalone="no" ?>
<!DOCTYPE svg PUBLIC "-//W3C//DTD SVG 1.1//EN" "http://www.w3.org/Graphics/SVG/1.1/DTD/svg11.dtd">
<svg xmlns="http://www.w3.org/2000/svg" xmlns:xlink="http://www.w3.org/1999/xlink" version="1.1" width="141" height="161" viewBox="0 0 141 161" xml:space="preserve">
<desc>Created with Fabric.js 4.6.0</desc>
<defs>
</defs>
<g transform="matrix(1 0 0 1 70.5 80.5)" id="tKlWOF7Y2UKqJLZru6Jyf"  >
<path style="stroke: none; stroke-width: 1; stroke-dasharray: none; stroke-linecap: butt; stroke-dashoffset: 0; stroke-linejoin: miter; stroke-miterlimit: 4; fill: rgb(229,107,111); fill-rule: nonzero; opacity: 1;" vector-effect="non-scaling-stroke"  transform=" translate(-70.5, -80.5)" d="M 45.32143 45.28125 L 45.32143 60.37499 L 95.67857000000001 60.37499 L 95.67857000000001 45.28125 C 95.67857000000001 31.38243 84.41116000000001 20.125 70.5 20.125 C 56.58884 20.125 45.32143 31.38242 45.32143 45.28125 z M 25.17857 60.37499 L 25.17857 45.28125 C 25.17857 20.28222 45.478790000000004 0 70.5 0 C 95.52121 0 115.82142999999999 20.28223 115.82142999999999 45.28125 L 115.82142999999999 60.37499 L 120.85713999999999 60.37499 C 131.96717999999998 60.37499 141 69.39979 141 80.5 L 141 140.87499 C 141 151.97518 131.96719 161 120.85714 161 L 20.14286 161 C 9.03282 161 0 151.9752 0 140.87499 L 0 80.5 C 0 69.39981 9.03281 60.37499 20.14286 60.37499 z" stroke-linecap="round" />
</g>
</svg>